# xmcd
#
# Track frame offsets:
#	150
#	12042
#	26561
#	38106
#	52047
#	64358
#	78891
#	90812
#	104606
#	118220
#	132279
#	147390
#	158810
#	170737
#	181863
#	195510
#	209618
#	225565
#	240014
#	253258
#	267505
#	278737
#	294175
#	306200
#	318252
#	332659
#	344941
#
# Disc length: 4768 seconds
#
# Revision: 1
# Processed by: cddbd v1.5.2PL0 Copyright (c) Steve Scherf et al.
# Submitted via: audiograbber 1.83.01
#
DISCID=88129e1b
DTITLE=Various Artist - Dave's 78s Volume 1
DYEAR=1900
DGENRE=
TTITLE0=Those Things Money Cant Buy
TTITLE1=A Slow Boat To China
TTITLE2=Who Wouldnt Love You
TTITLE3=Huggin And Chalkin
TTITLE4=Accentuate The Positive
TTITLE5=Linda
TTITLE6=My Sugar Is So Refined
TTITLE7=Waitin For The Train To Come In
TTITLE8=Side By Side
TTITLE9=I'll Dance At Your Wedding
TTITLE10=Its Been A Long Long Time
TTITLE11=Youre So Pretty Ugly
TTITLE12=Abba Dabba Dabba
TTITLE13=Slow Poke
TTITLE14=Somebody Said
TTITLE15=I'm Making Believe
TTITLE16=Christopher Columbus
TTITLE17=When Did You Leave Heaven
TTITLE18=Were Gonna Swing Tonight
TTITLE19=The Dipsy Doodle
TTITLE20=So Rare
TTITLE21=Moonglow
TTITLE22=Afraid To Dream
TTITLE23=That Old Feeling
TTITLE24=Flat Foot Floogie (With The Floy Floy)
TTITLE25=Says My Heart
TTITLE26=You Must Have Been A Beautiful Baby
EXTD=
EXTT0=
EXTT1=
EXTT2=
EXTT3=
EXTT4=
EXTT5=
EXTT6=
EXTT7=
EXTT8=
EXTT9=
EXTT10=
EXTT11=
EXTT12=
EXTT13=
EXTT14=
EXTT15=
EXTT16=
EXTT17=
EXTT18=
EXTT19=
EXTT20=
EXTT21=
EXTT22=
EXTT23=
EXTT24=
EXTT25=
EXTT26=
PLAYORDER=
